name Walk_125 04
datacolumns 19
datarows 66
range 5.095833 5.163542
endheader
time	ground_force_vx	ground_force_vy	ground_force_vz	ground_force_px	ground_force_py	ground_force_pz	ground_force_vx	ground_force_vy	ground_force_vz	ground_force_px	ground_force_py	ground_force_pz	ground_torque_x	ground_torque_y	ground_torque_z	ground_torque_x	ground_torque_y	ground_torque_z
5.095833	0.000007	0.000259	-0.000029	0.000004	0.000000	-0.000002	-69.119756	740.805177	47.453140	1.021057	0.000000	-0.545030	0.000000	0.000000	0.000000	0.000000	4.379544	0.000000	
5.096875	-0.000007	0.000286	-0.000036	0.000005	0.000000	-0.000002	-68.533337	738.060281	47.455113	1.020118	0.000000	-0.544982	0.000000	0.000000	0.000000	0.000000	4.371277	0.000000	
5.097917	-0.000018	0.000281	-0.000039	0.000005	0.000000	-0.000002	-67.947868	735.351017	47.458038	1.019181	0.000000	-0.544934	0.000000	0.000000	0.000000	0.000000	4.359957	0.000000	
5.098958	-0.000025	0.000250	-0.000037	0.000005	0.000000	-0.000002	-67.362019	732.680017	47.460258	1.018246	0.000000	-0.544885	0.000000	0.000000	0.000000	0.000000	4.345556	0.000000	
5.100000	-0.000027	0.000203	-0.000032	0.000004	0.000000	-0.000001	-66.774319	730.049494	47.459896	1.017313	0.000000	-0.544836	0.000000	0.000000	0.000000	0.000000	4.328070	0.000000	
5.101042	-0.000027	0.000146	-0.000026	0.000003	0.000000	-0.000001	-66.183175	727.461242	47.454887	1.016381	0.000000	-0.544787	0.000000	0.000000	0.000000	0.000000	4.307520	0.000000	
5.102083	-0.000024	0.000088	-0.000018	0.000002	0.000000	-0.000000	-65.586903	724.916660	47.443011	1.015448	0.000000	-0.544736	0.000000	0.000000	0.000000	0.000000	4.283948	0.000000	
5.103125	-0.000020	0.000035	-0.000010	0.000001	0.000000	-0.000000	-64.983768	722.416777	47.421940	1.014516	0.000000	-0.544685	0.000000	0.000000	0.000000	0.000000	4.257420	0.000000	
5.104167	-0.000014	-0.000010	-0.000003	0.000000	-0.000000	0.000000	-64.372023	719.962285	47.389281	1.013582	0.000000	-0.544633	0.000000	0.000000	0.000000	0.000000	4.228024	0.000000	
5.105208	-0.000009	-0.000045	0.000003	-0.000001	-0.000000	0.000000	-63.749960	717.553577	47.342624	1.012645	0.000000	-0.544580	0.000000	0.000000	0.000000	0.000000	4.195869	0.000000	
5.106250	-0.000004	-0.000067	0.000007	-0.000001	-0.000000	0.000001	-63.115960	715.190793	47.279590	1.011706	0.000000	-0.544525	0.000000	0.000000	0.000000	0.000000	4.161083	0.000000	
5.107292	0.000001	-0.000078	0.000010	-0.000001	-0.000000	0.000001	-62.468542	712.873855	47.197889	1.010763	0.000000	-0.544469	0.000000	0.000000	0.000000	0.000000	4.123814	0.000000	
5.108333	0.000004	-0.000080	0.000011	-0.000001	-0.000000	0.000001	-61.806411	710.602513	47.095360	1.009816	0.000000	-0.544412	0.000000	0.000000	0.000000	0.000000	4.084224	0.000000	
5.109375	0.000006	-0.000073	0.000011	-0.000001	-0.000000	0.000000	-61.128504	708.376378	46.970030	1.008865	0.000000	-0.544353	0.000000	0.000000	0.000000	0.000000	4.042491	0.000000	
5.110417	0.000007	-0.000061	0.000010	-0.000001	-0.000000	0.000000	-60.434023	706.194959	46.820150	1.007908	0.000000	-0.544293	0.000000	0.000000	0.000000	0.000000	3.998805	0.000000	
5.111458	0.000008	-0.000046	0.000008	-0.000001	-0.000000	0.000000	-59.722470	704.057684	46.644247	1.006946	0.000000	-0.544231	0.000000	0.000000	0.000000	0.000000	3.953366	0.000000	
5.112500	0.000007	-0.000030	0.000006	-0.000001	-0.000000	0.000000	-58.993663	701.963925	46.441153	1.005977	0.000000	-0.544168	0.000000	0.000000	0.000000	0.000000	3.906382	0.000000	
5.113542	0.000006	-0.000015	0.000004	-0.000000	-0.000000	0.000000	-58.247746	699.913000	46.210039	1.005003	0.000000	-0.544103	0.000000	0.000000	0.000000	0.000000	3.858066	0.000000	
5.114583	0.000005	-0.000001	0.000001	-0.000000	0.000000	-0.000000	-57.485188	697.904189	45.950439	1.004023	0.000000	-0.544037	0.000000	0.000000	0.000000	0.000000	3.808631	0.000000	
5.115625	0.000003	0.000010	-0.000000	0.000000	0.000000	-0.000000	-56.706774	695.936718	45.662265	1.003036	0.000000	-0.543970	0.000000	0.000000	0.000000	0.000000	3.758294	0.000000	
5.116667	0.000001	0.000017	-0.000002	0.000000	0.000000	-0.000000	-55.913581	694.009757	45.345817	1.002044	0.000000	-0.543901	0.000000	0.000000	0.000000	0.000000	3.707266	0.000000	
5.117708	0.000000	0.000021	-0.000002	0.000000	0.000000	-0.000000	-55.106946	692.122404	45.001779	1.001045	0.000000	-0.543832	0.000000	0.000000	0.000000	0.000000	3.655755	0.000000	
5.118750	-0.000001	0.000022	-0.000003	0.000000	0.000000	-0.000000	-54.288428	690.273660	44.631216	1.000041	0.000000	-0.543761	0.000000	0.000000	0.000000	0.000000	3.603959	0.000000	
5.119792	-0.000002	0.000021	-0.000003	0.000000	0.000000	-0.000000	-53.459768	688.462417	44.235551	0.999032	0.000000	-0.543690	0.000000	0.000000	0.000000	0.000000	3.552067	0.000000	
5.120833	-0.000002	0.000018	-0.000003	0.000000	0.000000	-0.000000	-52.622833	686.687428	43.816543	0.998017	0.000000	-0.543618	0.000000	0.000000	0.000000	0.000000	3.500256	0.000000	
5.121875	-0.000002	0.000014	-0.000002	0.000000	0.000000	-0.000000	-51.779572	684.947293	43.376255	0.996998	0.000000	-0.543546	0.000000	0.000000	0.000000	0.000000	3.448690	0.000000	
5.122917	-0.000002	0.000010	-0.000002	0.000000	0.000000	-0.000000	-50.931964	683.240439	42.917014	0.995974	0.000000	-0.543474	0.000000	0.000000	0.000000	0.000000	3.397515	0.000000	
5.123958	-0.000002	0.000005	-0.000001	0.000000	0.000000	-0.000000	-50.081967	681.565109	42.441369	0.994947	0.000000	-0.543402	0.000000	0.000000	0.000000	0.000000	3.346862	0.000000	
5.125000	-0.000001	0.000001	-0.000001	0.000000	-0.000000	0.000000	-49.231480	679.919357	41.952044	0.993916	0.000000	-0.543330	0.000000	0.000000	0.000000	0.000000	3.296843	0.000000	
5.126042	-0.000001	-0.000002	-0.000000	-0.000000	-0.000000	0.000000	-48.382301	678.301046	41.451885	0.992882	0.000000	-0.543258	0.000000	0.000000	0.000000	0.000000	3.247550	0.000000	
5.127083	-0.000001	-0.000004	0.000000	-0.000000	-0.000000	0.000000	-47.536102	676.707859	40.943809	0.991845	0.000000	-0.543187	0.000000	0.000000	0.000000	0.000000	3.199057	0.000000	
5.128125	-0.000000	-0.000006	0.000001	-0.000000	-0.000000	0.000000	-46.694400	675.137312	40.430757	0.990806	0.000000	-0.543116	0.000000	0.000000	0.000000	0.000000	3.151418	0.000000	
5.129167	0.000000	-0.000006	0.000001	-0.000000	-0.000000	0.000000	-45.858551	673.586781	39.915638	0.989764	0.000000	-0.543046	0.000000	0.000000	0.000000	0.000000	3.104668	0.000000	
5.130208	0.000000	-0.000006	0.000001	-0.000000	-0.000000	0.000000	-45.029743	672.053531	39.401284	0.988722	0.000000	-0.542976	0.000000	0.000000	0.000000	0.000000	3.058822	0.000000	
5.131250	0.000001	-0.000005	0.000001	-0.000000	-0.000000	0.000000	-44.209002	670.534748	38.890411	0.987677	0.000000	-0.542907	0.000000	0.000000	0.000000	0.000000	3.013878	0.000000	
5.132292	0.000001	-0.000004	0.000001	-0.000000	-0.000000	0.000000	-43.397203	669.027589	38.385575	0.986632	0.000000	-0.542840	0.000000	0.000000	0.000000	0.000000	2.969818	0.000000	
5.133333	0.000001	-0.000003	0.000001	-0.000000	-0.000000	0.000000	-42.595095	667.529217	37.889146	0.985587	0.000000	-0.542773	0.000000	0.000000	0.000000	0.000000	2.926607	0.000000	
5.134375	0.000001	-0.000002	0.000000	-0.000000	-0.000000	0.000000	-41.803320	666.036851	37.403281	0.984541	0.000000	-0.542707	0.000000	0.000000	0.000000	0.000000	2.884199	0.000000	
5.135417	0.000000	-0.000001	0.000000	-0.000000	-0.000000	0.000000	-41.022448	664.547813	36.929906	0.983495	0.000000	-0.542643	0.000000	0.000000	0.000000	0.000000	2.842533	0.000000	
5.136458	0.000000	0.000000	0.000000	-0.000000	0.000000	-0.000000	-40.253006	663.059570	36.470708	0.982449	0.000000	-0.542580	0.000000	0.000000	0.000000	0.000000	2.801543	0.000000	
5.137500	0.000000	0.000001	-0.000000	0.000000	0.000000	-0.000000	-39.495506	661.569776	36.027131	0.981405	0.000000	-0.542518	0.000000	0.000000	0.000000	0.000000	2.761151	0.000000	
5.138542	0.000000	0.000001	-0.000000	0.000000	0.000000	-0.000000	-38.750479	660.076306	35.600380	0.980361	0.000000	-0.542457	0.000000	0.000000	0.000000	0.000000	2.721281	0.000000	
5.139583	-0.000000	0.000002	-0.000000	0.000000	0.000000	-0.000000	-38.018496	658.577290	35.191434	0.979319	0.000000	-0.542398	0.000000	0.000000	0.000000	0.000000	2.681848	0.000000	
5.140625	-0.000000	0.000002	-0.000000	0.000000	0.000000	-0.000000	-37.300186	657.071133	34.801063	0.978279	0.000000	-0.542341	0.000000	0.000000	0.000000	0.000000	2.642774	0.000000	
5.141667	-0.000000	0.000002	-0.000000	0.000000	0.000000	-0.000000	-36.596252	655.556532	34.429846	0.977242	0.000000	-0.542285	0.000000	0.000000	0.000000	0.000000	2.603981	0.000000	
5.142708	-0.000000	0.000001	-0.000000	0.000000	0.000000	-0.000000	-35.907467	654.032485	34.078200	0.976208	0.000000	-0.542231	0.000000	0.000000	0.000000	0.000000	2.565396	0.000000	
5.143750	-0.000000	0.000001	-0.000000	0.000000	0.000000	-0.000000	-35.234679	652.498294	33.746407	0.975178	0.000000	-0.542179	0.000000	0.000000	0.000000	0.000000	2.526956	0.000000	
5.144792	-0.000000	0.000001	-0.000000	0.000000	0.000000	-0.000000	-34.578788	650.953552	33.434642	0.974153	0.000000	-0.542129	0.000000	0.000000	0.000000	0.000000	2.488607	0.000000	
5.145833	-0.000000	0.000000	-0.000000	0.000000	0.000000	-0.000000	-33.940728	649.398138	33.143004	0.973132	0.000000	-0.542081	0.000000	0.000000	0.000000	0.000000	2.450309	0.000000	
5.146875	-0.000000	0.000000	-0.000000	0.000000	-0.000000	0.000000	-33.321441	647.832192	32.871542	0.972118	0.000000	-0.542035	0.000000	0.000000	0.000000	0.000000	2.412033	0.000000	
5.147917	-0.000000	-0.000000	0.000000	-0.000000	-0.000000	0.000000	-32.721835	646.256094	32.620284	0.971110	0.000000	-0.541991	0.000000	0.000000	0.000000	0.000000	2.373769	0.000000	
5.148958	-0.000000	-0.000000	0.000000	-0.000000	-0.000000	0.000000	-32.142755	644.670440	32.389257	0.970110	0.000000	-0.541949	0.000000	0.000000	0.000000	0.000000	2.335520	0.000000	
5.150000	-0.000000	-0.000000	0.000000	-0.000000	-0.000000	0.000000	-31.584933	643.076009	32.178506	0.969118	0.000000	-0.541909	0.000000	0.000000	0.000000	0.000000	2.297307	0.000000	
5.151042	0.000000	-0.000000	0.000000	-0.000000	-0.000000	0.000000	-31.048958	641.473738	31.988111	0.968135	0.000000	-0.541871	0.000000	0.000000	0.000000	0.000000	2.259172	0.000000	
5.152083	0.000000	-0.000000	0.000000	-0.000000	-0.000000	0.000000	-30.535231	639.864692	31.818191	0.967162	0.000000	-0.541835	0.000000	0.000000	0.000000	0.000000	2.221170	0.000000	
5.153125	0.000000	-0.000000	0.000000	-0.000000	-0.000000	0.000000	-30.043939	638.250040	31.668913	0.966199	0.000000	-0.541801	0.000000	0.000000	0.000000	0.000000	2.183377	0.000000	
5.154167	0.000000	-0.000000	0.000000	-0.000000	-0.000000	0.000000	-29.575028	636.631030	31.540485	0.965248	0.000000	-0.541769	0.000000	0.000000	0.000000	0.000000	2.145883	0.000000	
5.155208	0.000000	-0.000000	0.000000	-0.000000	-0.000000	0.000000	-29.128187	635.008973	31.433151	0.964309	0.000000	-0.541739	0.000000	0.000000	0.000000	0.000000	2.108796	0.000000	
5.156250	0.000000	-0.000000	0.000000	-0.000000	-0.000000	0.000000	-28.702842	633.385226	31.347182	0.963381	0.000000	-0.541710	0.000000	0.000000	0.000000	0.000000	2.072238	0.000000	
5.157292	0.000000	-0.000000	0.000000	-0.000000	0.000000	-0.000000	-28.298160	631.761184	31.282852	0.962467	0.000000	-0.541683	0.000000	0.000000	0.000000	0.000000	2.036341	0.000000	
5.158333	0.000000	0.000000	0.000000	0.000000	0.000000	-0.000000	-27.913064	630.138275	31.240427	0.961566	0.000000	-0.541657	0.000000	0.000000	0.000000	0.000000	2.001251	0.000000	
5.159375	0.000000	0.000000	-0.000000	0.000000	0.000000	-0.000000	-27.546256	628.517961	31.220135	0.960679	0.000000	-0.541633	0.000000	0.000000	0.000000	0.000000	1.967120	0.000000	
5.160417	0.000000	0.000000	-0.000000	0.000000	0.000000	-0.000000	-27.196254	626.901734	31.222145	0.959806	0.000000	-0.541609	0.000000	0.000000	0.000000	0.000000	1.934108	0.000000	
5.161458	-0.000000	0.000000	-0.000000	0.000000	0.000000	-0.000000	-26.861431	625.291132	31.246543	0.958947	0.000000	-0.541587	0.000000	0.000000	0.000000	0.000000	1.902375	0.000000	
5.162500	-0.000000	0.000000	-0.000000	0.000000	0.000000	-0.000000	-26.540065	623.687735	31.293301	0.958102	0.000000	-0.541565	0.000000	0.000000	0.000000	0.000000	1.872086	0.000000	
5.163542	-0.000000	0.000000	-0.000000	0.000000	0.000000	-0.000000	-26.230386	622.093180	31.362258	0.957271	0.000000	-0.541545	0.000000	0.000000	0.000000	0.000000	1.843401	0.000000	
